<svg xmlns="http://www.w3.org/2000/svg" xmlns:xlink="http://www.w3.org/1999/xlink" width="1080" zoomAndPan="magnify" viewBox="0 0 810 1439.999935" height="1920" preserveAspectRatio="xMidYMid meet" version="1.0"><defs><g/><clipPath id="c3e6845d5e"><path d="M 206 621 L 605 621 L 605 853 L 206 853 Z M 206 621 " clip-rule="nonzero"/></clipPath><clipPath id="5bfea1a5c0"><path d="M 271.503906 516.710938 L 632.574219 655.984375 L 538.644531 899.496094 L 177.574219 760.222656 Z M 271.503906 516.710938 " clip-rule="nonzero"/></clipPath><clipPath id="da7acc0ffe"><path d="M 271.503906 516.710938 L 632.574219 655.984375 L 538.644531 899.496094 L 177.574219 760.222656 Z M 271.503906 516.710938 " clip-rule="nonzero"/></clipPath><clipPath id="6d132fb4ef"><path d="M 602.335938 711.441406 C 611.3125 680.933594 595.976562 647.9375 567.011719 634.960938 C 544.648438 624.859375 519.902344 628.605469 501.871094 642.164062 C 492.882812 648.875 480.449219 648.34375 471.71875 641.203125 C 464.996094 635.65625 457.117188 630.976562 448.546875 627.667969 C 423.40625 617.972656 396.457031 621.035156 374.777344 633.84375 C 362.21875 641.304688 346.628906 640.871094 334.027344 633.550781 C 328.558594 630.289062 322.523438 627.636719 316.214844 625.695312 C 275.3125 613.035156 230.980469 633.515625 213.890625 672.710938 C 194.425781 717.226562 216.183594 768.453125 261.042969 785.753906 C 279.613281 792.917969 299.09375 793.046875 316.597656 787.652344 C 334.300781 782.175781 353.222656 790.128906 361.617188 806.660156 C 371.4375 825.875 388.550781 841.5 410.992188 848.84375 C 452.246094 862.296875 497.742188 841.769531 514.910156 801.949219 C 516.871094 797.289062 518.433594 792.804688 519.625 788.015625 C 523.523438 771.957031 536.109375 759.746094 552.394531 756.671875 C 575.175781 752.496094 595.1875 735.925781 602.335938 711.441406 Z M 602.335938 711.441406 " clip-rule="nonzero"/></clipPath><clipPath id="2653f00783"><path d="M 326 591 L 364 591 L 364 628 L 326 628 Z M 326 591 " clip-rule="nonzero"/></clipPath><clipPath id="0506560aad"><path d="M 271.503906 516.710938 L 632.574219 655.984375 L 538.644531 899.496094 L 177.574219 760.222656 Z M 271.503906 516.710938 " clip-rule="nonzero"/></clipPath><clipPath id="f05abbe22c"><path d="M 271.503906 516.710938 L 632.574219 655.984375 L 538.644531 899.496094 L 177.574219 760.222656 Z M 271.503906 516.710938 " clip-rule="nonzero"/></clipPath><clipPath id="c6f999c0f6"><path d="M 362.21875 616.195312 C 362.003906 616.753906 361.761719 617.296875 361.496094 617.832031 C 361.226562 618.363281 360.933594 618.882812 360.613281 619.386719 C 360.292969 619.890625 359.953125 620.378906 359.585938 620.847656 C 359.21875 621.320312 358.828125 621.769531 358.417969 622.203125 C 358.003906 622.636719 357.574219 623.046875 357.121094 623.4375 C 356.667969 623.828125 356.199219 624.191406 355.710938 624.535156 C 355.222656 624.878906 354.71875 625.199219 354.199219 625.492188 C 353.683594 625.789062 353.148438 626.054688 352.605469 626.296875 C 352.058594 626.539062 351.503906 626.753906 350.9375 626.941406 C 350.367188 627.128906 349.792969 627.285156 349.210938 627.417969 C 348.628906 627.546875 348.042969 627.648438 347.449219 627.722656 C 346.859375 627.796875 346.265625 627.839844 345.667969 627.855469 C 345.070312 627.871094 344.476562 627.855469 343.878906 627.8125 C 343.285156 627.765625 342.691406 627.695312 342.105469 627.59375 C 341.515625 627.492188 340.9375 627.359375 340.359375 627.199219 C 339.785156 627.042969 339.21875 626.855469 338.664062 626.640625 C 338.105469 626.425781 337.5625 626.183594 337.027344 625.914062 C 336.496094 625.648438 335.976562 625.351562 335.472656 625.035156 C 334.96875 624.714844 334.480469 624.371094 334.011719 624.003906 C 333.539062 623.636719 333.089844 623.246094 332.65625 622.835938 C 332.222656 622.425781 331.8125 621.992188 331.421875 621.542969 C 331.035156 621.089844 330.667969 620.621094 330.324219 620.132812 C 329.980469 619.644531 329.660156 619.140625 329.367188 618.621094 C 329.074219 618.101562 328.804688 617.570312 328.5625 617.023438 C 328.320312 616.476562 328.105469 615.921875 327.917969 615.355469 C 327.730469 614.789062 327.574219 614.214844 327.441406 613.632812 C 327.3125 613.050781 327.210938 612.460938 327.136719 611.871094 C 327.0625 611.277344 327.019531 610.683594 327.003906 610.085938 C 326.988281 609.492188 327.003906 608.894531 327.046875 608.300781 C 327.09375 607.703125 327.164062 607.113281 327.265625 606.523438 C 327.371094 605.9375 327.5 605.355469 327.660156 604.78125 C 327.820312 604.207031 328.003906 603.640625 328.21875 603.082031 C 328.433594 602.527344 328.675781 601.980469 328.945312 601.449219 C 329.214844 600.914062 329.507812 600.394531 329.824219 599.890625 C 330.144531 599.386719 330.488281 598.902344 330.855469 598.429688 C 331.222656 597.960938 331.613281 597.507812 332.023438 597.078125 C 332.433594 596.644531 332.867188 596.234375 333.320312 595.84375 C 333.769531 595.453125 334.238281 595.085938 334.726562 594.742188 C 335.214844 594.398438 335.71875 594.082031 336.238281 593.785156 C 336.757812 593.492188 337.289062 593.222656 337.835938 592.984375 C 338.382812 592.742188 338.9375 592.527344 339.503906 592.339844 C 340.070312 592.152344 340.644531 591.992188 341.226562 591.863281 C 341.808594 591.730469 342.398438 591.628906 342.988281 591.554688 C 343.582031 591.484375 344.175781 591.441406 344.773438 591.425781 C 345.367188 591.410156 345.964844 591.425781 346.558594 591.46875 C 347.15625 591.511719 347.746094 591.585938 348.335938 591.6875 C 348.921875 591.789062 349.503906 591.921875 350.078125 592.078125 C 350.65625 592.238281 351.21875 592.425781 351.777344 592.640625 C 352.332031 592.855469 352.878906 593.097656 353.410156 593.363281 C 353.945312 593.632812 354.464844 593.925781 354.96875 594.246094 C 355.472656 594.566406 355.960938 594.910156 356.429688 595.277344 C 356.898438 595.644531 357.351562 596.03125 357.785156 596.445312 C 358.214844 596.855469 358.625 597.285156 359.015625 597.738281 C 359.40625 598.191406 359.773438 598.660156 360.117188 599.148438 C 360.460938 599.636719 360.777344 600.140625 361.074219 600.660156 C 361.367188 601.179688 361.636719 601.710938 361.878906 602.257812 C 362.117188 602.800781 362.332031 603.359375 362.519531 603.925781 C 362.707031 604.492188 362.867188 605.066406 362.996094 605.648438 C 363.128906 606.230469 363.230469 606.816406 363.304688 607.410156 C 363.375 608 363.421875 608.597656 363.433594 609.191406 C 363.449219 609.789062 363.433594 610.386719 363.390625 610.980469 C 363.347656 611.574219 363.273438 612.167969 363.171875 612.753906 C 363.070312 613.34375 362.941406 613.925781 362.78125 614.5 C 362.621094 615.074219 362.433594 615.640625 362.21875 616.195312 Z M 362.21875 616.195312 " clip-rule="nonzero"/></clipPath><clipPath id="a77c090ca7"><path d="M 444 588 L 467 588 L 467 611 L 444 611 Z M 444 588 " clip-rule="nonzero"/></clipPath><clipPath id="a26257a71e"><path d="M 271.503906 516.710938 L 632.574219 655.984375 L 538.644531 899.496094 L 177.574219 760.222656 Z M 271.503906 516.710938 " clip-rule="nonzero"/></clipPath><clipPath id="cbaf99b37c"><path d="M 271.503906 516.710938 L 632.574219 655.984375 L 538.644531 899.496094 L 177.574219 760.222656 Z M 271.503906 516.710938 " clip-rule="nonzero"/></clipPath><clipPath id="0bbc6adecc"><path d="M 465.820312 603.3125 C 465.5625 603.980469 465.242188 604.613281 464.859375 605.21875 C 464.480469 605.820312 464.042969 606.382812 463.550781 606.898438 C 463.058594 607.414062 462.519531 607.878906 461.9375 608.289062 C 461.351562 608.699219 460.734375 609.050781 460.082031 609.339844 C 459.429688 609.628906 458.753906 609.851562 458.058594 610.007812 C 457.363281 610.164062 456.65625 610.253906 455.941406 610.269531 C 455.230469 610.289062 454.519531 610.234375 453.816406 610.113281 C 453.113281 609.992188 452.429688 609.800781 451.765625 609.542969 C 451.097656 609.289062 450.464844 608.96875 449.859375 608.585938 C 449.257812 608.203125 448.695312 607.769531 448.179688 607.277344 C 447.664062 606.785156 447.199219 606.246094 446.789062 605.660156 C 446.378906 605.078125 446.027344 604.460938 445.738281 603.808594 C 445.449219 603.15625 445.226562 602.480469 445.070312 601.785156 C 444.914062 601.085938 444.824219 600.382812 444.808594 599.667969 C 444.789062 598.957031 444.84375 598.246094 444.964844 597.542969 C 445.085938 596.839844 445.277344 596.15625 445.535156 595.488281 C 445.789062 594.824219 446.109375 594.1875 446.492188 593.585938 C 446.875 592.984375 447.308594 592.421875 447.800781 591.90625 C 448.292969 591.390625 448.832031 590.925781 449.417969 590.515625 C 450 590.101562 450.617188 589.753906 451.269531 589.464844 C 451.921875 589.175781 452.597656 588.953125 453.292969 588.796875 C 453.992188 588.640625 454.695312 588.550781 455.410156 588.535156 C 456.121094 588.515625 456.832031 588.570312 457.535156 588.691406 C 458.238281 588.8125 458.921875 589.003906 459.589844 589.257812 C 460.253906 589.515625 460.890625 589.835938 461.492188 590.21875 C 462.09375 590.597656 462.65625 591.035156 463.171875 591.527344 C 463.6875 592.019531 464.152344 592.558594 464.5625 593.140625 C 464.976562 593.726562 465.324219 594.34375 465.613281 594.996094 C 465.902344 595.648438 466.125 596.324219 466.28125 597.019531 C 466.4375 597.714844 466.527344 598.421875 466.542969 599.136719 C 466.5625 599.847656 466.507812 600.558594 466.386719 601.261719 C 466.265625 601.964844 466.074219 602.648438 465.820312 603.3125 Z M 465.820312 603.3125 " clip-rule="nonzero"/></clipPath><clipPath id="b09751f345"><path d="M 542 780 L 577 780 L 577 815 L 542 815 Z M 542 780 " clip-rule="nonzero"/></clipPath><clipPath id="491ac22bf5"><path d="M 271.503906 516.710938 L 632.574219 655.984375 L 538.644531 899.496094 L 177.574219 760.222656 Z M 271.503906 516.710938 " clip-rule="nonzero"/></clipPath><clipPath id="77ffc8537e"><path d="M 271.503906 516.710938 L 632.574219 655.984375 L 538.644531 899.496094 L 177.574219 760.222656 Z M 271.503906 516.710938 " clip-rule="nonzero"/></clipPath><clipPath id="2c02ae080f"><path d="M 575.238281 803.394531 C 575.035156 803.917969 574.808594 804.429688 574.554688 804.929688 C 574.300781 805.433594 574.027344 805.921875 573.726562 806.394531 C 573.425781 806.871094 573.101562 807.328125 572.757812 807.769531 C 572.410156 808.214844 572.042969 808.640625 571.65625 809.046875 C 571.269531 809.453125 570.863281 809.839844 570.4375 810.207031 C 570.011719 810.574219 569.570312 810.917969 569.109375 811.242188 C 568.652344 811.566406 568.179688 811.863281 567.6875 812.140625 C 567.199219 812.417969 566.699219 812.671875 566.1875 812.898438 C 565.671875 813.125 565.148438 813.328125 564.617188 813.503906 C 564.082031 813.679688 563.542969 813.832031 562.996094 813.953125 C 562.445312 814.078125 561.894531 814.171875 561.335938 814.242188 C 560.777344 814.308594 560.21875 814.351562 559.65625 814.363281 C 559.097656 814.378906 558.535156 814.363281 557.976562 814.324219 C 557.414062 814.28125 556.859375 814.214844 556.304688 814.117188 C 555.75 814.023438 555.203125 813.898438 554.664062 813.75 C 554.121094 813.597656 553.589844 813.421875 553.066406 813.222656 C 552.542969 813.019531 552.027344 812.792969 551.527344 812.539062 C 551.023438 812.285156 550.535156 812.011719 550.0625 811.710938 C 549.585938 811.410156 549.128906 811.085938 548.6875 810.742188 C 548.242188 810.394531 547.820312 810.027344 547.410156 809.640625 C 547.003906 809.253906 546.617188 808.847656 546.25 808.421875 C 545.882812 807.996094 545.539062 807.554688 545.214844 807.097656 C 544.894531 806.636719 544.59375 806.164062 544.316406 805.675781 C 544.039062 805.183594 543.785156 804.683594 543.558594 804.171875 C 543.332031 803.65625 543.128906 803.132812 542.953125 802.601562 C 542.777344 802.066406 542.628906 801.527344 542.503906 800.980469 C 542.382812 800.429688 542.285156 799.878906 542.21875 799.320312 C 542.148438 798.761719 542.105469 798.203125 542.09375 797.640625 C 542.078125 797.082031 542.09375 796.519531 542.132812 795.960938 C 542.175781 795.398438 542.246094 794.84375 542.339844 794.289062 C 542.4375 793.734375 542.558594 793.1875 542.707031 792.648438 C 542.859375 792.105469 543.035156 791.574219 543.238281 791.050781 C 543.4375 790.527344 543.667969 790.011719 543.917969 789.511719 C 544.171875 789.007812 544.449219 788.519531 544.75 788.046875 C 545.046875 787.574219 545.371094 787.113281 545.71875 786.671875 C 546.0625 786.226562 546.429688 785.804688 546.816406 785.398438 C 547.203125 784.988281 547.609375 784.601562 548.035156 784.234375 C 548.460938 783.871094 548.902344 783.523438 549.363281 783.199219 C 549.820312 782.878906 550.296875 782.578125 550.785156 782.300781 C 551.273438 782.023438 551.773438 781.769531 552.285156 781.542969 C 552.800781 781.316406 553.324219 781.113281 553.855469 780.9375 C 554.390625 780.761719 554.929688 780.613281 555.480469 780.488281 C 556.027344 780.367188 556.578125 780.269531 557.136719 780.203125 C 557.695312 780.132812 558.253906 780.089844 558.816406 780.078125 C 559.375 780.0625 559.9375 780.078125 560.496094 780.117188 C 561.058594 780.160156 561.613281 780.230469 562.167969 780.324219 C 562.722656 780.421875 563.269531 780.542969 563.808594 780.695312 C 564.351562 780.84375 564.882812 781.019531 565.40625 781.222656 C 565.933594 781.421875 566.445312 781.652344 566.945312 781.902344 C 567.449219 782.15625 567.9375 782.433594 568.410156 782.734375 C 568.886719 783.035156 569.34375 783.355469 569.785156 783.703125 C 570.230469 784.046875 570.65625 784.414062 571.0625 784.800781 C 571.46875 785.1875 571.855469 785.59375 572.222656 786.019531 C 572.589844 786.445312 572.933594 786.886719 573.257812 787.347656 C 573.582031 787.804688 573.878906 788.28125 574.15625 788.769531 C 574.433594 789.257812 574.6875 789.757812 574.914062 790.273438 C 575.140625 790.785156 575.34375 791.308594 575.519531 791.839844 C 575.695312 792.375 575.84375 792.914062 575.96875 793.464844 C 576.089844 794.011719 576.1875 794.5625 576.257812 795.121094 C 576.324219 795.679688 576.367188 796.238281 576.378906 796.800781 C 576.394531 797.363281 576.378906 797.921875 576.339844 798.480469 C 576.296875 799.042969 576.230469 799.597656 576.132812 800.152344 C 576.035156 800.707031 575.914062 801.253906 575.765625 801.792969 C 575.613281 802.335938 575.4375 802.867188 575.238281 803.394531 Z M 575.238281 803.394531 " clip-rule="nonzero"/></clipPath><clipPath id="211fc9a5a6"><rect x="0" width="126" y="0" height="138"/></clipPath><clipPath id="69cc4c60e6"><rect x="0" width="162" y="0" height="147"/></clipPath></defs><rect x="-81" width="972" fill="#ffffff" y="-143.999994" height="1727.999922" fill-opacity="1"/><rect x="-81" width="972" fill="#ff9e62" y="-143.999994" height="1727.999922" fill-opacity="1"/><g clip-path="url(#c3e6845d5e)"><g clip-path="url(#5bfea1a5c0)"><g clip-path="url(#da7acc0ffe)"><g clip-path="url(#6d132fb4ef)"><path fill="#fcfdf2" d="M 248.417969 473.058594 L 110.730469 830.011719 L 557.320312 1002.273438 L 695.003906 645.316406 Z M 248.417969 473.058594 " fill-opacity="1" fill-rule="nonzero"/></g></g></g></g><g clip-path="url(#2653f00783)"><g clip-path="url(#0506560aad)"><g clip-path="url(#f05abbe22c)"><g clip-path="url(#c6f999c0f6)"><path fill="#fcfdf2" d="M 331.710938 579.167969 L 314.75 623.148438 L 358.726562 640.113281 L 375.691406 596.132812 Z M 331.710938 579.167969 " fill-opacity="1" fill-rule="nonzero"/></g></g></g></g><g clip-path="url(#a77c090ca7)"><g clip-path="url(#a26257a71e)"><g clip-path="url(#cbaf99b37c)"><g clip-path="url(#0bbc6adecc)"><path fill="#fcfdf2" d="M 447.609375 581.207031 L 437.480469 607.46875 L 463.742188 617.597656 L 473.871094 591.335938 Z M 447.609375 581.207031 " fill-opacity="1" fill-rule="nonzero"/></g></g></g></g><g clip-path="url(#b09751f345)"><g clip-path="url(#491ac22bf5)"><g clip-path="url(#77ffc8537e)"><g clip-path="url(#2c02ae080f)"><path fill="#fcfdf2" d="M 546.523438 768.542969 L 530.558594 809.933594 L 571.949219 825.898438 L 587.914062 784.507812 Z M 546.523438 768.542969 " fill-opacity="1" fill-rule="nonzero"/></g></g></g></g><g transform="matrix(1, 0, 0, 1, 281, 660)"><g clip-path="url(#211fc9a5a6)"><g fill="#ff9e62" fill-opacity="1"><g transform="translate(16.788452, 102.779213)"><g><path d="M 1.671875 -16.09375 C -1.046875 -19.175781 -2.757812 -22.476562 -3.46875 -26 C -4.175781 -29.519531 -3.816406 -32.707031 -2.390625 -35.5625 C -0.972656 -38.414062 1.507812 -40.347656 5.0625 -41.359375 C 5.21875 -41.378906 5.382812 -41.40625 5.5625 -41.4375 C 5.75 -41.476562 5.878906 -41.503906 5.953125 -41.515625 C 7.753906 -41.835938 9.5 -41.707031 11.1875 -41.125 C 12.882812 -40.539062 14.476562 -39.78125 15.96875 -38.84375 C 17.457031 -37.90625 18.765625 -37.085938 19.890625 -36.390625 C 21.023438 -35.703125 21.96875 -35.425781 22.71875 -35.5625 C 23.019531 -35.613281 23.296875 -35.820312 23.546875 -36.1875 C 24.273438 -37.25 24.175781 -38.316406 23.25 -39.390625 C 22.320312 -40.460938 20.875 -41.613281 18.90625 -42.84375 C 16.9375 -44.082031 14.722656 -45.410156 12.265625 -46.828125 C 9.816406 -48.253906 7.382812 -49.835938 4.96875 -51.578125 C 2.5625 -53.316406 0.488281 -55.289062 -1.25 -57.5 C -3 -59.707031 -4.125 -62.203125 -4.625 -64.984375 C -5.84375 -71.816406 -4.382812 -77.539062 -0.25 -82.15625 C 3.882812 -86.78125 10.34375 -89.878906 19.125 -91.453125 C 23.632812 -92.253906 27.394531 -92.242188 30.40625 -91.421875 C 33.425781 -90.597656 35.617188 -89.28125 36.984375 -87.46875 C 38.359375 -85.664062 38.847656 -83.722656 38.453125 -81.640625 C 38.160156 -80.191406 37.472656 -79.117188 36.390625 -78.421875 C 35.316406 -77.722656 34.035156 -77.242188 32.546875 -76.984375 C 30.660156 -76.640625 28.601562 -76.5 26.375 -76.5625 C 24.15625 -76.632812 22.242188 -76.609375 20.640625 -76.484375 C 20.421875 -76.441406 20.175781 -76.410156 19.90625 -76.390625 C 19.632812 -76.378906 19.390625 -76.351562 19.171875 -76.3125 C 16.835938 -75.894531 15.234375 -74.972656 14.359375 -73.546875 C 13.492188 -72.117188 13.515625 -70.398438 14.421875 -68.390625 C 15.078125 -66.796875 16.453125 -65.351562 18.546875 -64.0625 C 20.648438 -62.769531 23.15625 -61.453125 26.0625 -60.109375 C 28.976562 -58.773438 32.003906 -57.335938 35.140625 -55.796875 C 38.285156 -54.265625 41.28125 -52.476562 44.125 -50.4375 C 46.96875 -48.394531 49.410156 -45.984375 51.453125 -43.203125 C 53.503906 -40.421875 54.832031 -37.148438 55.4375 -33.390625 C 56.257812 -28.347656 55.769531 -23.921875 53.96875 -20.109375 C 52.164062 -16.296875 49.628906 -13.222656 46.359375 -10.890625 C 43.097656 -8.566406 39.59375 -7.070312 35.84375 -6.40625 L 31.4375 -5.609375 C 27.15625 -4.847656 23.128906 -4.90625 19.359375 -5.78125 C 15.597656 -6.65625 12.210938 -8.046875 9.203125 -9.953125 C 6.191406 -11.859375 3.679688 -13.90625 1.671875 -16.09375 Z M 1.671875 -16.09375 "/></g></g></g><g fill="#ff9e62" fill-opacity="1"><g transform="translate(72.117844, 93.775876)"><g><path d="M 10.28125 0.625 C 8.375 0.507812 6.691406 -0.144531 5.234375 -1.34375 C 3.785156 -2.539062 2.773438 -4.4375 2.203125 -7.03125 C 1.640625 -9.625 1.71875 -13.019531 2.4375 -17.21875 C 3.15625 -21.414062 4.769531 -26.570312 7.28125 -32.6875 C 8.90625 -36.632812 10.101562 -40.859375 10.875 -45.359375 C 11.644531 -49.867188 12.1875 -54.332031 12.5 -58.75 C 12.8125 -63.164062 13.0625 -67.257812 13.25 -71.03125 C 13.445312 -74.800781 13.816406 -77.929688 14.359375 -80.421875 C 14.578125 -81.628906 15.3125 -82.820312 16.5625 -84 C 17.820312 -85.1875 19.789062 -85.703125 22.46875 -85.546875 C 24.300781 -85.429688 25.757812 -84.878906 26.84375 -83.890625 C 27.925781 -82.910156 28.695312 -81.796875 29.15625 -80.546875 C 29.476562 -79.679688 29.625 -78.101562 29.59375 -75.8125 C 29.570312 -73.53125 29.503906 -70.820312 29.390625 -67.6875 C 29.273438 -64.5625 29.207031 -61.238281 29.1875 -57.71875 C 29.164062 -54.195312 29.296875 -50.707031 29.578125 -47.25 C 29.859375 -43.800781 30.410156 -40.640625 31.234375 -37.765625 C 32.296875 -34.097656 33.222656 -30.367188 34.015625 -26.578125 C 34.816406 -22.785156 35.34375 -19.15625 35.59375 -15.6875 C 35.84375 -12.226562 35.65625 -9.179688 35.03125 -6.546875 C 34.40625 -3.910156 33.148438 -1.867188 31.265625 -0.421875 C 29.390625 1.023438 26.738281 1.644531 23.3125 1.4375 Z M 10.28125 0.625 "/></g></g></g></g></g><g transform="matrix(1, 0, 0, 1, 385, 652)"><g clip-path="url(#69cc4c60e6)"><g fill="#ff9e62" fill-opacity="1"><g transform="translate(16.410815, 105.858255)"><g><path d="M 12.484375 -0.15625 C 8.890625 -0.101562 6.226562 -0.789062 4.5 -2.21875 C 2.769531 -3.644531 1.695312 -5.539062 1.28125 -7.90625 C 0.863281 -10.28125 0.867188 -12.9375 1.296875 -15.875 C 1.722656 -18.820312 2.316406 -21.828125 3.078125 -24.890625 C 3.847656 -27.953125 4.554688 -30.820312 5.203125 -33.5 C 5.859375 -36.175781 6.175781 -38.46875 6.15625 -40.375 C 6.132812 -42.207031 5.894531 -44.585938 5.4375 -47.515625 C 4.976562 -50.453125 4.5 -53.671875 4 -57.171875 C 3.5 -60.679688 3.078125 -64.164062 2.734375 -67.625 C 2.390625 -71.09375 2.296875 -74.257812 2.453125 -77.125 C 2.609375 -80 3.191406 -82.316406 4.203125 -84.078125 C 5.210938 -85.847656 6.75 -86.75 8.8125 -86.78125 C 10.644531 -86.800781 12.226562 -86.585938 13.5625 -86.140625 C 14.90625 -85.703125 15.65625 -85.519531 15.8125 -85.59375 C 18.550781 -86.46875 21.101562 -86.921875 23.46875 -86.953125 C 27.28125 -86.992188 30.835938 -86.210938 34.140625 -84.609375 C 37.441406 -83.015625 40.15625 -80.832031 42.28125 -78.0625 C 44.414062 -75.300781 45.710938 -72.207031 46.171875 -68.78125 C 46.640625 -65.351562 45.976562 -61.796875 44.1875 -58.109375 C 42.84375 -55.429688 41.488281 -53.429688 40.125 -52.109375 C 38.769531 -50.796875 37.734375 -49.882812 37.015625 -49.375 C 36.296875 -48.875 36.25 -48.441406 36.875 -48.078125 C 37.175781 -47.921875 38.132812 -47.46875 39.75 -46.71875 C 41.363281 -45.976562 43.226562 -44.910156 45.34375 -43.515625 C 47.457031 -42.128906 49.515625 -40.378906 51.515625 -38.265625 C 53.523438 -36.160156 55.15625 -33.628906 56.40625 -30.671875 C 57.664062 -27.710938 58.171875 -24.28125 57.921875 -20.375 C 57.734375 -17.09375 56.816406 -13.929688 55.171875 -10.890625 C 53.523438 -7.859375 51.148438 -5.367188 48.046875 -3.421875 C 44.941406 -1.484375 41.0625 -0.488281 36.40625 -0.4375 C 34.800781 -0.414062 33.132812 -0.523438 31.40625 -0.765625 C 29.6875 -1.015625 27.835938 -1.398438 25.859375 -1.921875 C 24.335938 -1.128906 22.453125 -0.644531 20.203125 -0.46875 C 17.953125 -0.289062 15.378906 -0.1875 12.484375 -0.15625 Z M 25.375 -41.859375 C 24.007812 -41.304688 23.066406 -40.070312 22.546875 -38.15625 C 22.035156 -36.25 21.90625 -34.148438 22.15625 -31.859375 C 22.414062 -29.578125 23.03125 -27.601562 24 -25.9375 C 24.976562 -24.269531 26.195312 -23.441406 27.65625 -23.453125 C 28.1875 -23.460938 28.679688 -23.582031 29.140625 -23.8125 C 30.648438 -24.4375 31.625 -25.457031 32.0625 -26.875 C 32.507812 -28.300781 32.609375 -29.867188 32.359375 -31.578125 C 32.109375 -33.296875 31.613281 -34.953125 30.875 -36.546875 C 30.132812 -38.140625 29.316406 -39.445312 28.421875 -40.46875 C 27.535156 -41.488281 26.707031 -41.992188 25.9375 -41.984375 C 25.632812 -41.984375 25.445312 -41.941406 25.375 -41.859375 Z M 21.53125 -75.921875 C 20.914062 -75.609375 20.484375 -74.613281 20.234375 -72.9375 C 19.992188 -71.257812 20 -69.367188 20.25 -67.265625 C 20.507812 -65.171875 21.050781 -63.347656 21.875 -61.796875 C 22.695312 -60.242188 23.832031 -59.476562 25.28125 -59.5 C 25.8125 -59.5 26.304688 -59.539062 26.765625 -59.625 C 27.222656 -59.707031 27.675781 -59.976562 28.125 -60.4375 C 29.863281 -62.21875 30.757812 -64.019531 30.8125 -65.84375 C 30.863281 -67.675781 30.398438 -69.390625 29.421875 -70.984375 C 28.453125 -72.578125 27.3125 -73.84375 26 -74.78125 C 24.695312 -75.71875 23.515625 -76.179688 22.453125 -76.171875 C 22.140625 -76.171875 21.832031 -76.085938 21.53125 -75.921875 Z M 21.53125 -75.921875 "/></g></g></g><g fill="#ff9e62" fill-opacity="1"><g transform="translate(81.651927, 105.094505)"><g><path d="M 8.984375 -2.25 C 6.847656 -1.707031 5.09375 -1.738281 3.71875 -2.34375 C 2.34375 -2.945312 1.28125 -3.882812 0.53125 -5.15625 C -0.207031 -6.425781 -0.738281 -7.785156 -1.0625 -9.234375 C -1.382812 -10.691406 -1.566406 -11.960938 -1.609375 -13.046875 C -1.828125 -17.390625 -1.53125 -21.785156 -0.71875 -26.234375 C 0.09375 -30.691406 0.675781 -35.050781 1.03125 -39.3125 C 1.269531 -42.75 1.429688 -46.109375 1.515625 -49.390625 C 1.597656 -52.679688 1.71875 -56.039062 1.875 -59.46875 C 1.894531 -60.34375 1.929688 -62.019531 1.984375 -64.5 C 2.035156 -66.988281 2.207031 -69.84375 2.5 -73.0625 C 2.789062 -76.289062 3.347656 -79.398438 4.171875 -82.390625 C 5.003906 -85.390625 6.253906 -87.804688 7.921875 -89.640625 C 9.128906 -91.046875 10.847656 -92.03125 13.078125 -92.59375 C 14.703125 -93 16.351562 -93.078125 18.03125 -92.828125 C 19.707031 -92.578125 21.070312 -91.914062 22.125 -90.84375 C 26.300781 -87 29.765625 -82.648438 32.515625 -77.796875 C 35.265625 -72.941406 38.132812 -68.132812 41.125 -63.375 C 42.707031 -60.875 44.703125 -58.171875 47.109375 -55.265625 C 49.523438 -52.367188 51.972656 -49.4375 54.453125 -46.46875 C 56.929688 -43.507812 59.117188 -40.597656 61.015625 -37.734375 C 62.910156 -34.867188 64.207031 -32.179688 64.90625 -29.671875 C 65.445312 -27.847656 65.738281 -25.898438 65.78125 -23.828125 C 65.820312 -21.753906 65.488281 -19.921875 64.78125 -18.328125 C 64.082031 -16.734375 62.8125 -15.707031 60.96875 -15.25 L 45.078125 -11.265625 C 43.304688 -10.828125 41.722656 -11.335938 40.328125 -12.796875 C 38.941406 -14.265625 37.722656 -16.300781 36.671875 -18.90625 C 35.628906 -21.519531 34.71875 -24.378906 33.9375 -27.484375 C 33.164062 -30.597656 32.519531 -33.582031 32 -36.4375 C 31.476562 -39.300781 31.070312 -41.703125 30.78125 -43.640625 C 30.5 -45.578125 30.285156 -46.679688 30.140625 -46.953125 C 29.847656 -47.492188 29.179688 -47.789062 28.140625 -47.84375 C 27.109375 -47.90625 25.960938 -47.78125 24.703125 -47.46875 C 23.453125 -47.15625 22.253906 -46.675781 21.109375 -46.03125 C 19.972656 -45.394531 19.3125 -44.664062 19.125 -43.84375 C 19.082031 -43.664062 19.53125 -42.726562 20.46875 -41.03125 C 21.40625 -39.34375 22.554688 -37.175781 23.921875 -34.53125 C 25.296875 -31.882812 26.585938 -29.082031 27.796875 -26.125 C 29.015625 -23.164062 29.910156 -20.300781 30.484375 -17.53125 C 31.066406 -14.757812 31.035156 -12.367188 30.390625 -10.359375 C 29.742188 -8.359375 28.238281 -7.0625 25.875 -6.46875 Z M 16.140625 -79.3125 C 15.085938 -78.882812 14.351562 -77.832031 13.9375 -76.15625 C 13.53125 -74.488281 13.394531 -72.570312 13.53125 -70.40625 C 13.675781 -68.238281 13.953125 -66.203125 14.359375 -64.296875 C 14.765625 -62.390625 15.1875 -61.023438 15.625 -60.203125 C 16.050781 -59.429688 16.78125 -58.941406 17.8125 -58.734375 C 18.851562 -58.523438 19.929688 -58.5625 21.046875 -58.84375 C 22.296875 -59.15625 23.445312 -59.734375 24.5 -60.578125 C 25.550781 -61.429688 26.0625 -62.367188 26.03125 -63.390625 C 26.039062 -64.328125 25.710938 -65.734375 25.046875 -67.609375 C 24.378906 -69.484375 23.523438 -71.394531 22.484375 -73.34375 C 21.453125 -75.289062 20.367188 -76.867188 19.234375 -78.078125 C 18.109375 -79.296875 17.078125 -79.707031 16.140625 -79.3125 Z M 16.140625 -79.3125 "/></g></g></g></g></g></svg>